# xmcd
#
# Track frame offsets:
# 150
# 14011
# 34883
# 51475
# 70394
# 89757
# 109480
# 130059
# 149414
# 168301
# 187876
# 206868
# 225253
# 244178
# 257477
# 270648
# 288612
# 306293
#
# Disc length: 4309 seconds
#
#
# Revision: 1
# Processed by: cddbd v1.5.2PL0 Copyright (c) Steve Scherf et al.
# Submitted via: FreeRIP 2.942 
#
DISCID=1810d312
DTITLE=Capitan Caribe - J.Punset - Los Grandes Sesiones De La Salsa 3 [CD 1)
DYEAR=1900
DGENRE=Salsa
TTITLE0=24 horas - Edward
TTITLE1=Fantastico Amor -  La Grande De Siempre
TTITLE2=Tan Enamorados - Edwin Rivera
TTITLE3=Amada Mia -  Jose Alberto El Canario
TTITLE4=Vida Loca - Leo Vanelli
TTITLE5=Cuando Regrese - Tito Rojas
TTITLE6=Es Penoso -  Orquesta Guayacn
TTITLE7=Me Tiene Loco -  Puerto Rican Power
TTITLE8=Lady - Homeboys
TTITLE9=Pequena - La Makina
TTITLE10=Por Mujeres Como Tu - Arena Fina
TTITLE11=Se Fue Con Otro - Cuerpo Y Alma
TTITLE12=Vuelve - Rubby Perez
TTITLE13=Culpables - Eddy Herrera
TTITLE14=El Gorila - Maremoto
TTITLE15=Nada De Nada - Frank Reyes
TTITLE16=Te Quiero Igual Que Ayer - Monchi and Alexandra
TTITLE17=18-Obsesion - Passion Bachata
EXTD=
EXTT0=
EXTT1=
EXTT2=
EXTT3=
EXTT4=
EXTT5=
EXTT6=
EXTT7=
EXTT8=
EXTT9=
EXTT10=
EXTT11=
EXTT12=
EXTT13=
EXTT14=
EXTT15=
EXTT16=
EXTT17=
PLAYORDER=
